REM created by cdda2wav 3.01a24_linux_3.14-1-amd64_x86_64_x86_64 07/06/2014 02:21:52 PM
REM CDRTOOLS
REM
FILE "Blind Melon [Soup] disc 1 of 1.wav" WAVE
  TRACK 01 AUDIO
    INDEX 00 00:00:00
    INDEX 01 02:10:00
  TRACK 02 AUDIO
    INDEX 01 05:41:00
  TRACK 03 AUDIO
    INDEX 01 09:41:30
  TRACK 04 AUDIO
    INDEX 01 12:57:02
  TRACK 05 AUDIO
    INDEX 01 14:55:00
  TRACK 06 AUDIO
    INDEX 01 18:02:10
  TRACK 07 AUDIO
    INDEX 01 20:49:70
  TRACK 08 AUDIO
    INDEX 01 24:30:62
  TRACK 09 AUDIO
    INDEX 01 27:13:60
  TRACK 10 AUDIO
    INDEX 01 29:44:22
  TRACK 11 AUDIO
    INDEX 01 33:21:42
  TRACK 12 AUDIO
    INDEX 01 37:33:55
  TRACK 13 AUDIO
    INDEX 01 41:09:10
  TRACK 14 AUDIO
    INDEX 01 44:43:70
